<mxfile host="app.diagrams.net" agent="Mozilla/5.0 (Windows NT 10.0; Win64; x64) AppleWebKit/537.36 (KHTML, like Gecko) Chrome/138.0.0.0 Safari/537.36" version="28.1.0">
  <diagram name="Página-1" id="ssXGepgER0dBmCo74H64">
    <mxGraphModel dx="1042" dy="579" grid="1" gridSize="10" guides="1" tooltips="1" connect="1" arrows="1" fold="1" page="1" pageScale="1" pageWidth="1169" pageHeight="827" math="0" shadow="0">
      <root>
        <mxCell id="0" />
        <mxCell id="1" parent="0" />
        <mxCell id="gclYoHtCiaGFcKxHTQbx-9" value="Agendamiento de Citas – Clínica Salud Viva" style="swimlane;childLayout=stackLayout;resizeParent=1;resizeParentMax=0;horizontal=1;startSize=20;horizontalStack=0;html=1;" vertex="1" parent="1">
          <mxGeometry x="100" y="30" width="930" height="755" as="geometry" />
        </mxCell>
        <mxCell id="gclYoHtCiaGFcKxHTQbx-10" value="paciente" style="swimlane;startSize=20;horizontal=0;html=1;" vertex="1" parent="gclYoHtCiaGFcKxHTQbx-9">
          <mxGeometry y="20" width="930" height="275" as="geometry" />
        </mxCell>
        <mxCell id="gclYoHtCiaGFcKxHTQbx-15" value="&lt;font style=&quot;color: light-dark(rgb(0, 0, 0), rgb(255, 255, 255));&quot;&gt;Paciente solicita cita&lt;/font&gt;" style="points=[[0.145,0.145,0],[0.5,0,0],[0.855,0.145,0],[1,0.5,0],[0.855,0.855,0],[0.5,1,0],[0.145,0.855,0],[0,0.5,0]];shape=mxgraph.bpmn.event;html=1;verticalLabelPosition=bottom;labelBackgroundColor=#ffffff;verticalAlign=top;align=center;perimeter=ellipsePerimeter;outlineConnect=0;aspect=fixed;outline=standard;symbol=general;fillColor=#60a917;fontColor=#ffffff;strokeColor=#2D7600;" vertex="1" parent="gclYoHtCiaGFcKxHTQbx-10">
          <mxGeometry x="80" y="40" width="50" height="50" as="geometry" />
        </mxCell>
        <mxCell id="gclYoHtCiaGFcKxHTQbx-16" value="Seleccionar especialidad" style="rounded=1;whiteSpace=wrap;html=1;" vertex="1" parent="gclYoHtCiaGFcKxHTQbx-10">
          <mxGeometry x="210" y="35" width="120" height="60" as="geometry" />
        </mxCell>
        <mxCell id="gclYoHtCiaGFcKxHTQbx-17" value="Seleccionar médico" style="rounded=1;whiteSpace=wrap;html=1;" vertex="1" parent="gclYoHtCiaGFcKxHTQbx-10">
          <mxGeometry x="400" y="35" width="120" height="60" as="geometry" />
        </mxCell>
        <mxCell id="gclYoHtCiaGFcKxHTQbx-22" value="&lt;span data-end=&quot;585&quot; data-start=&quot;557&quot;&gt;Seleccionar fecha y hora&lt;/span&gt;" style="rounded=1;whiteSpace=wrap;html=1;" vertex="1" parent="gclYoHtCiaGFcKxHTQbx-10">
          <mxGeometry x="640" y="40" width="120" height="60" as="geometry" />
        </mxCell>
        <mxCell id="gclYoHtCiaGFcKxHTQbx-23" value="" style="endArrow=classic;html=1;rounded=0;fontSize=12;startSize=8;endSize=8;curved=1;exitX=1;exitY=0.5;exitDx=0;exitDy=0;exitPerimeter=0;entryX=0;entryY=0.5;entryDx=0;entryDy=0;fillColor=#1ba1e2;strokeColor=#006EAF;" edge="1" parent="gclYoHtCiaGFcKxHTQbx-10" source="gclYoHtCiaGFcKxHTQbx-15" target="gclYoHtCiaGFcKxHTQbx-16">
          <mxGeometry width="50" height="50" relative="1" as="geometry">
            <mxPoint x="440" y="220" as="sourcePoint" />
            <mxPoint x="200" y="70" as="targetPoint" />
          </mxGeometry>
        </mxCell>
        <mxCell id="gclYoHtCiaGFcKxHTQbx-24" value="" style="endArrow=classic;html=1;rounded=0;fontSize=12;startSize=8;endSize=8;curved=1;exitX=1;exitY=0.5;exitDx=0;exitDy=0;entryX=0;entryY=0.5;entryDx=0;entryDy=0;fillColor=#1ba1e2;strokeColor=#006EAF;" edge="1" parent="gclYoHtCiaGFcKxHTQbx-10" source="gclYoHtCiaGFcKxHTQbx-16" target="gclYoHtCiaGFcKxHTQbx-17">
          <mxGeometry width="50" height="50" relative="1" as="geometry">
            <mxPoint x="340" y="80" as="sourcePoint" />
            <mxPoint x="490" y="170" as="targetPoint" />
          </mxGeometry>
        </mxCell>
        <mxCell id="gclYoHtCiaGFcKxHTQbx-11" value="Sistema de citas" style="swimlane;startSize=20;horizontal=0;html=1;" vertex="1" parent="gclYoHtCiaGFcKxHTQbx-9">
          <mxGeometry y="295" width="930" height="140" as="geometry" />
        </mxCell>
        <mxCell id="gclYoHtCiaGFcKxHTQbx-21" value="¿Está disponible?" style="points=[[0.25,0.25,0],[0.5,0,0],[0.75,0.25,0],[1,0.5,0],[0.75,0.75,0],[0.5,1,0],[0.25,0.75,0],[0,0.5,0]];shape=mxgraph.bpmn.gateway2;html=1;verticalLabelPosition=bottom;labelBackgroundColor=#ffffff;verticalAlign=top;align=center;perimeter=rhombusPerimeter;outlineConnect=0;outline=none;symbol=none;gwType=exclusive;fillColor=#fad7ac;strokeColor=#b46504;" vertex="1" parent="gclYoHtCiaGFcKxHTQbx-11">
          <mxGeometry x="280" y="45" width="50" height="50" as="geometry" />
        </mxCell>
        <mxCell id="gclYoHtCiaGFcKxHTQbx-48" value="" style="edgeStyle=none;curved=1;rounded=0;orthogonalLoop=1;jettySize=auto;html=1;fontSize=12;startSize=8;endSize=8;fillColor=#1ba1e2;strokeColor=#006EAF;" edge="1" parent="gclYoHtCiaGFcKxHTQbx-11" source="gclYoHtCiaGFcKxHTQbx-46" target="gclYoHtCiaGFcKxHTQbx-21">
          <mxGeometry relative="1" as="geometry" />
        </mxCell>
        <mxCell id="gclYoHtCiaGFcKxHTQbx-46" value="Validar disponibilidad de médico" style="rounded=1;whiteSpace=wrap;html=1;" vertex="1" parent="gclYoHtCiaGFcKxHTQbx-11">
          <mxGeometry x="60" y="40" width="120" height="60" as="geometry" />
        </mxCell>
        <mxCell id="gclYoHtCiaGFcKxHTQbx-54" value="" style="edgeStyle=none;curved=1;rounded=0;orthogonalLoop=1;jettySize=auto;html=1;fontSize=12;startSize=8;endSize=8;fillColor=#1ba1e2;strokeColor=#006EAF;" edge="1" parent="gclYoHtCiaGFcKxHTQbx-11" source="gclYoHtCiaGFcKxHTQbx-51" target="gclYoHtCiaGFcKxHTQbx-53">
          <mxGeometry relative="1" as="geometry" />
        </mxCell>
        <mxCell id="gclYoHtCiaGFcKxHTQbx-51" value="Confirmar cita" style="rounded=1;whiteSpace=wrap;html=1;" vertex="1" parent="gclYoHtCiaGFcKxHTQbx-11">
          <mxGeometry x="560" y="45" width="120" height="60" as="geometry" />
        </mxCell>
        <mxCell id="gclYoHtCiaGFcKxHTQbx-53" value="¿Se confirma?" style="points=[[0.25,0.25,0],[0.5,0,0],[0.75,0.25,0],[1,0.5,0],[0.75,0.75,0],[0.5,1,0],[0.25,0.75,0],[0,0.5,0]];shape=mxgraph.bpmn.gateway2;html=1;verticalLabelPosition=bottom;labelBackgroundColor=#ffffff;verticalAlign=top;align=center;perimeter=rhombusPerimeter;outlineConnect=0;outline=none;symbol=none;gwType=exclusive;fillColor=#fad7ac;strokeColor=#b46504;" vertex="1" parent="gclYoHtCiaGFcKxHTQbx-11">
          <mxGeometry x="770" y="50" width="50" height="50" as="geometry" />
        </mxCell>
        <mxCell id="gclYoHtCiaGFcKxHTQbx-12" value="Base de Datos" style="swimlane;startSize=20;horizontal=0;html=1;" vertex="1" parent="gclYoHtCiaGFcKxHTQbx-9">
          <mxGeometry y="435" width="930" height="120" as="geometry" />
        </mxCell>
        <mxCell id="gclYoHtCiaGFcKxHTQbx-59" value="Registrar cita" style="rounded=1;whiteSpace=wrap;html=1;" vertex="1" parent="gclYoHtCiaGFcKxHTQbx-12">
          <mxGeometry x="670" y="25" width="120" height="60" as="geometry" />
        </mxCell>
        <mxCell id="gclYoHtCiaGFcKxHTQbx-28" value="" style="endArrow=classic;html=1;rounded=0;fontSize=12;startSize=8;endSize=8;curved=0;exitX=1;exitY=0.5;exitDx=0;exitDy=0;exitPerimeter=0;entryX=0;entryY=0.5;entryDx=0;entryDy=0;fillColor=#60a917;strokeColor=#2D7600;" edge="1" parent="gclYoHtCiaGFcKxHTQbx-9" source="gclYoHtCiaGFcKxHTQbx-21" target="gclYoHtCiaGFcKxHTQbx-22">
          <mxGeometry width="50" height="50" relative="1" as="geometry">
            <mxPoint x="440" y="240" as="sourcePoint" />
            <mxPoint x="490" y="190" as="targetPoint" />
            <Array as="points">
              <mxPoint x="460" y="365" />
              <mxPoint x="460" y="310" />
              <mxPoint x="600" y="310" />
              <mxPoint x="600" y="90" />
            </Array>
          </mxGeometry>
        </mxCell>
        <mxCell id="gclYoHtCiaGFcKxHTQbx-31" value="Si" style="edgeLabel;html=1;align=center;verticalAlign=middle;resizable=0;points=[];fontSize=12;" vertex="1" connectable="0" parent="gclYoHtCiaGFcKxHTQbx-28">
          <mxGeometry x="-0.8095" y="-1" relative="1" as="geometry">
            <mxPoint as="offset" />
          </mxGeometry>
        </mxCell>
        <mxCell id="gclYoHtCiaGFcKxHTQbx-47" value="" style="edgeStyle=none;curved=0;rounded=0;orthogonalLoop=1;jettySize=auto;html=1;fontSize=12;startSize=8;endSize=8;fillColor=#1ba1e2;strokeColor=#006EAF;" edge="1" parent="gclYoHtCiaGFcKxHTQbx-9" source="gclYoHtCiaGFcKxHTQbx-17" target="gclYoHtCiaGFcKxHTQbx-46">
          <mxGeometry relative="1" as="geometry">
            <Array as="points">
              <mxPoint x="460" y="170" />
              <mxPoint x="120" y="170" />
            </Array>
          </mxGeometry>
        </mxCell>
        <mxCell id="gclYoHtCiaGFcKxHTQbx-49" value="" style="endArrow=classic;html=1;rounded=0;fontSize=12;startSize=8;endSize=8;curved=0;exitX=0.5;exitY=0;exitDx=0;exitDy=0;exitPerimeter=0;entryX=1;entryY=0.5;entryDx=0;entryDy=0;fillColor=#e51400;strokeColor=#B20000;" edge="1" parent="gclYoHtCiaGFcKxHTQbx-9" source="gclYoHtCiaGFcKxHTQbx-21" target="gclYoHtCiaGFcKxHTQbx-17">
          <mxGeometry width="50" height="50" relative="1" as="geometry">
            <mxPoint x="440" y="330" as="sourcePoint" />
            <mxPoint x="490" y="280" as="targetPoint" />
            <Array as="points">
              <mxPoint x="305" y="260" />
              <mxPoint x="435" y="260" />
              <mxPoint x="560" y="260" />
              <mxPoint x="560" y="85" />
            </Array>
          </mxGeometry>
        </mxCell>
        <mxCell id="gclYoHtCiaGFcKxHTQbx-50" value="No" style="edgeLabel;html=1;align=center;verticalAlign=middle;resizable=0;points=[];fontSize=12;" vertex="1" connectable="0" parent="gclYoHtCiaGFcKxHTQbx-49">
          <mxGeometry x="-0.3562" y="1" relative="1" as="geometry">
            <mxPoint as="offset" />
          </mxGeometry>
        </mxCell>
        <mxCell id="gclYoHtCiaGFcKxHTQbx-52" value="" style="endArrow=classic;html=1;rounded=0;fontSize=12;startSize=8;endSize=8;curved=0;exitX=0.5;exitY=1;exitDx=0;exitDy=0;entryX=0.5;entryY=0;entryDx=0;entryDy=0;fillColor=#1ba1e2;strokeColor=#006EAF;" edge="1" parent="gclYoHtCiaGFcKxHTQbx-9" source="gclYoHtCiaGFcKxHTQbx-22" target="gclYoHtCiaGFcKxHTQbx-51">
          <mxGeometry width="50" height="50" relative="1" as="geometry">
            <mxPoint x="430" y="330" as="sourcePoint" />
            <mxPoint x="480" y="280" as="targetPoint" />
            <Array as="points">
              <mxPoint x="700" y="170" />
              <mxPoint x="620" y="170" />
            </Array>
          </mxGeometry>
        </mxCell>
        <mxCell id="gclYoHtCiaGFcKxHTQbx-57" value="" style="endArrow=classic;html=1;rounded=0;fontSize=12;startSize=8;endSize=8;curved=0;entryX=1;entryY=0.5;entryDx=0;entryDy=0;exitX=0.5;exitY=0;exitDx=0;exitDy=0;exitPerimeter=0;fillColor=#e51400;strokeColor=#B20000;" edge="1" parent="gclYoHtCiaGFcKxHTQbx-9" source="gclYoHtCiaGFcKxHTQbx-53" target="gclYoHtCiaGFcKxHTQbx-22">
          <mxGeometry width="50" height="50" relative="1" as="geometry">
            <mxPoint x="770" y="330" as="sourcePoint" />
            <mxPoint x="820" y="280" as="targetPoint" />
            <Array as="points">
              <mxPoint x="795" y="90" />
            </Array>
          </mxGeometry>
        </mxCell>
        <mxCell id="gclYoHtCiaGFcKxHTQbx-58" value="No" style="edgeLabel;html=1;align=center;verticalAlign=middle;resizable=0;points=[];fontSize=12;" vertex="1" connectable="0" parent="gclYoHtCiaGFcKxHTQbx-57">
          <mxGeometry x="-0.3407" y="1" relative="1" as="geometry">
            <mxPoint as="offset" />
          </mxGeometry>
        </mxCell>
        <mxCell id="gclYoHtCiaGFcKxHTQbx-60" value="" style="endArrow=classic;html=1;rounded=0;fontSize=12;startSize=8;endSize=8;curved=0;exitX=1;exitY=0.5;exitDx=0;exitDy=0;exitPerimeter=0;entryX=1;entryY=0.5;entryDx=0;entryDy=0;fillColor=#60a917;strokeColor=#2D7600;" edge="1" parent="gclYoHtCiaGFcKxHTQbx-9" source="gclYoHtCiaGFcKxHTQbx-53" target="gclYoHtCiaGFcKxHTQbx-59">
          <mxGeometry width="50" height="50" relative="1" as="geometry">
            <mxPoint x="510" y="630" as="sourcePoint" />
            <mxPoint x="560" y="580" as="targetPoint" />
            <Array as="points">
              <mxPoint x="870" y="370" />
              <mxPoint x="870" y="490" />
            </Array>
          </mxGeometry>
        </mxCell>
        <mxCell id="gclYoHtCiaGFcKxHTQbx-61" value="Si" style="edgeLabel;html=1;align=center;verticalAlign=middle;resizable=0;points=[];fontSize=12;" vertex="1" connectable="0" parent="gclYoHtCiaGFcKxHTQbx-60">
          <mxGeometry x="-0.8757" y="1" relative="1" as="geometry">
            <mxPoint as="offset" />
          </mxGeometry>
        </mxCell>
        <mxCell id="gclYoHtCiaGFcKxHTQbx-64" value="" style="edgeStyle=none;curved=1;rounded=0;orthogonalLoop=1;jettySize=auto;html=1;fontSize=12;startSize=8;endSize=8;fillColor=#1ba1e2;strokeColor=#006EAF;" edge="1" parent="gclYoHtCiaGFcKxHTQbx-9" source="gclYoHtCiaGFcKxHTQbx-59" target="gclYoHtCiaGFcKxHTQbx-63">
          <mxGeometry relative="1" as="geometry" />
        </mxCell>
        <mxCell id="gclYoHtCiaGFcKxHTQbx-14" value="Servicio de Notificaciones" style="swimlane;startSize=20;horizontal=0;html=1;" vertex="1" parent="gclYoHtCiaGFcKxHTQbx-9">
          <mxGeometry y="555" width="930" height="200" as="geometry" />
        </mxCell>
        <mxCell id="gclYoHtCiaGFcKxHTQbx-63" value="Enviar correo/SMS" style="whiteSpace=wrap;html=1;rounded=1;" vertex="1" parent="gclYoHtCiaGFcKxHTQbx-14">
          <mxGeometry x="670" y="85" width="120" height="60" as="geometry" />
        </mxCell>
        <mxCell id="gclYoHtCiaGFcKxHTQbx-65" value="&lt;font style=&quot;color: light-dark(rgb(0, 0, 0), rgb(255, 255, 255));&quot;&gt;Cita &lt;span&gt;registrada&lt;/span&gt;&lt;/font&gt;" style="points=[[0.145,0.145,0],[0.5,0,0],[0.855,0.145,0],[1,0.5,0],[0.855,0.855,0],[0.5,1,0],[0.145,0.855,0],[0,0.5,0]];shape=mxgraph.bpmn.event;html=1;verticalLabelPosition=bottom;labelBackgroundColor=#ffffff;verticalAlign=top;align=center;perimeter=ellipsePerimeter;outlineConnect=0;aspect=fixed;outline=end;symbol=terminate2;fillColor=light-dark(#E51400,#FF3D3D);fontColor=#ffffff;strokeColor=#B20000;" vertex="1" parent="gclYoHtCiaGFcKxHTQbx-14">
          <mxGeometry x="430" y="90" width="50" height="50" as="geometry" />
        </mxCell>
        <mxCell id="gclYoHtCiaGFcKxHTQbx-66" value="" style="endArrow=classic;html=1;rounded=0;fontSize=12;startSize=8;endSize=8;curved=1;entryX=1;entryY=0.5;entryDx=0;entryDy=0;entryPerimeter=0;exitX=0;exitY=0.5;exitDx=0;exitDy=0;fillColor=#1ba1e2;strokeColor=#006EAF;" edge="1" parent="gclYoHtCiaGFcKxHTQbx-14" source="gclYoHtCiaGFcKxHTQbx-63" target="gclYoHtCiaGFcKxHTQbx-65">
          <mxGeometry width="50" height="50" relative="1" as="geometry">
            <mxPoint x="490" y="-25" as="sourcePoint" />
            <mxPoint x="540" y="-75" as="targetPoint" />
            <Array as="points">
              <mxPoint x="580" y="115" />
            </Array>
          </mxGeometry>
        </mxCell>
      </root>
    </mxGraphModel>
  </diagram>
</mxfile>
